Coordinates
version=1
nRows=16
nColumns=30
inDegrees=yes

Units are S.I. units (second, meters, Newtons, ...)
Angles are in degrees.

endheader
time	floatyaw	floatroll	floatpitch	floatx	floaty	floatz	pro_sup_l	deviation_l	flexion_l	cmc_flexion_l	cmc_abduction_l	mp_flexion_l	ip_flexion_l	2mcp_flexion_l	2mcp_abduction_l	2pm_flexion_l	2md_flexion_l	3mcp_flexion_l	3mcp_abduction_l	3pm_flexion_l	3md_flexion_l	4mcp_flexion_l	4mcp_abduction_l	4pm_flexion_l	4md_flexion_l	5mcp_flexion_l	5mcp_abduction_l	5pm_flexion_l	5md_flexion_l
0.005000	-160.147433	-5.066637	-73.570646	-0.057629	-0.096076	-0.088368	117.526857	39.700167	-12.659184	22.709066	36.467440	-23.155246	-56.473509	18.746163	8.449545	53.106130	39.869597	36.530624	5.816192	48.773465	38.070419	39.031129	-4.672136	46.481133	49.486953	21.830872	-14.097644	56.525349	63.047452
0.015000	-160.147433	-5.066637	-73.570646	-0.057536	-0.092564	-0.088025	117.064313	39.916590	-12.704159	22.776662	37.262994	-23.407022	-57.038236	19.324968	8.597913	52.808285	39.552880	37.228430	5.859258	48.121927	37.977782	39.813964	-4.700467	45.874606	49.403816	22.467381	-14.164625	55.978299	63.226532
0.025000	-160.147433	-5.066637	-73.570646	-0.057431	-0.088755	-0.087667	116.545514	40.168651	-12.826896	22.820681	38.083100	-23.556745	-57.581087	20.031502	8.768362	52.562993	39.295772	38.075818	5.911842	47.211193	37.855080	40.748244	-4.731250	45.058358	49.219330	23.313636	-14.234172	55.186714	63.349436
0.035000	-160.147433	-5.066637	-73.570646	-0.057361	-0.085189	-0.087295	115.939999	40.416593	-12.935093	22.846127	38.771198	-23.677522	-58.083440	20.768307	8.983892	52.523262	39.206326	39.005091	5.956104	46.220981	37.735761	41.805801	-4.769354	44.093039	48.962830	24.338300	-14.300956	54.224969	63.404095
0.045000	-160.147433	-5.066637	-73.570646	-0.057334	-0.082351	-0.086937	115.273785	40.607276	-12.945589	22.861460	39.239648	-23.847784	-58.540348	21.386669	9.236385	52.792688	39.339935	39.875324	5.975844	45.397057	37.655385	42.866356	-4.813376	43.132551	48.678390	25.395819	-14.353458	53.260136	63.378693
0.055000	-160.147433	-5.066637	-73.570646	-0.057321	-0.080510	-0.086637	114.610345	40.699185	-12.811433	22.863033	39.490205	-24.100728	-58.945759	21.758540	9.487607	53.359865	39.671019	40.529845	5.965669	44.930430	37.630912	43.758869	-4.856797	42.352372	48.417135	26.278426	-14.380369	52.482465	63.279072
0.065000	-160.147433	-5.066637	-73.570646	-0.057271	-0.079639	-0.086436	114.015934	40.680821	-12.532410	22.827897	39.590144	-24.393035	-59.275778	21.839978	9.688851	54.092557	40.102375	40.870419	5.934235	44.866649	37.649326	44.338199	-4.892258	41.869825	48.219431	26.808623	-14.377802	52.023308	63.132660
0.075000	-160.147433	-5.066637	-73.570646	-0.057144	-0.079479	-0.086352	113.530054	40.572418	-12.145782	22.723256	39.627724	-24.620817	-59.492565	21.686079	9.806587	54.795193	40.507772	40.896707	5.898805	45.102991	37.677185	44.547720	-4.915579	41.700632	48.101691	26.914550	-14.351414	51.906894	62.978794
0.085000	-160.147433	-5.066637	-73.570646	-0.056935	-0.079676	-0.086379	113.154804	40.411516	-11.704917	22.525952	39.673332	-24.674508	-59.567123	21.413211	9.838267	55.294936	40.783939	40.690254	5.875165	45.464343	37.682572	44.432451	-4.927046	41.769369	48.055948	26.646347	-14.312546	52.057621	62.852254
0.095000	-160.147433	-5.066637	-73.570646	-0.056667	-0.079925	-0.086487	112.863124	40.232613	-11.257648	22.235964	39.760128	-24.495111	-59.499152	21.138091	9.809906	55.508062	40.884751	40.363040	5.870070	45.796666	37.651439	44.103041	-4.929978	41.957795	48.059600	26.133478	-14.272262	52.348579	62.770179
0.105000	-160.147433	-5.066637	-73.570646	-0.056374	-0.080056	-0.086639	112.616616	40.052940	-10.833361	21.874380	39.884603	-24.098332	-59.317917	20.930070	9.759431	55.456461	40.824677	40.006956	5.880318	46.021121	37.589112	43.679147	-4.928328	42.158229	48.088065	25.516810	-14.237279	52.657649	62.729980
0.115000	-160.147433	-5.066637	-73.570646	-0.056077	-0.080042	-0.086807	112.382208	39.870390	-10.441698	21.470615	40.020029	-23.560291	-59.067312	20.796606	9.718026	55.236436	40.657998	39.668889	5.897151	46.134331	37.511327	43.245267	-4.925028	42.306021	48.124612	24.895000	-14.209032	52.904010	62.718109
0.125000	-160.147433	-5.066637	-73.570646	-0.055777	-0.079948	-0.086976	112.140987	39.671423	-10.079629	21.050600	40.134207	-22.981396	-58.788892	20.699882	9.700111	54.965282	40.450531	39.354242	5.911844	46.176800	37.434074	42.836301	-4.921719	42.384406	48.164657	24.306086	-14.184994	53.057746	62.722312
0.135000	-160.147433	-5.066637	-73.570646	-0.055457	-0.079863	-0.087151	111.888186	39.441825	-9.740310	20.632537	40.204550	-22.449953	-58.512578	20.588255	9.704122	54.734726	40.257871	39.046508	5.919268	46.198702	37.367705	42.449309	-4.919314	42.410341	48.214013	23.740539	-14.160908	53.130129	62.738804
0.145000	-160.147433	-5.066637	-73.570646	-0.055105	-0.079854	-0.087344	111.627456	39.173771	-9.418416	20.228109	40.226075	-22.019285	-58.255474	20.424074	9.719247	54.588802	40.114830	38.727878	5.918606	46.238365	37.315475	42.066134	-4.918535	42.414072	48.282507	23.168086	-14.132958	53.155335	62.770760
0.155000	-160.147433	-5.066637	-73.570646	-0.054720	-0.079940	-0.087567	111.363922	38.867104	-9.110905	19.844094	40.210488	-21.702463	-58.024365	20.196692	9.732590	54.527568	40.033812	38.391675	5.912188	46.313876	37.274669	41.672059	-4.919989	42.422013	48.376292	22.561195	-14.099359	53.171807	62.821050
